<svg width="22" height="22" viewBox="0 0 22 22" fill="none" xmlns="http://www.w3.org/2000/svg">
<path d="M9.67463 5.72011L6.57355 2.14053C6.21605 1.72803 5.56063 1.72986 5.14538 2.14603L2.59522 4.70078C1.83622 5.46069 1.61896 6.58911 2.05805 7.49386C4.6812 12.9251 9.06142 17.3114 14.489 19.9422C15.3928 20.3813 16.5203 20.164 17.2793 19.4041L19.8533 16.8255C20.2704 16.4084 20.2713 15.7494 19.8551 15.3919L16.2618 12.3073C15.886 11.9846 15.302 12.0268 14.9253 12.4044L13.675 13.6566C13.611 13.7237 13.5267 13.7679 13.4351 13.7825C13.3435 13.7971 13.2497 13.7812 13.168 13.7373C11.1243 12.5604 9.42896 10.8628 8.25472 8.81753C8.21074 8.73571 8.19482 8.64173 8.20939 8.55C8.22396 8.45827 8.26822 8.37385 8.33538 8.30969L9.58205 7.06211C9.95972 6.68261 10.001 6.09594 9.67463 5.71919V5.72011Z" stroke="black" stroke-width="1.83333" stroke-linecap="round" stroke-linejoin="round"/>
</svg>
